<svg id="Layer_1" data-name="Layer 1" xmlns="http://www.w3.org/2000/svg" xmlns:xlink="http://www.w3.org/1999/xlink" viewBox="0 0 299.38 345.76"><defs><linearGradient id="linear-gradient" x1="183.05" y1="401.58" x2="138.13" y2="235.7" gradientUnits="userSpaceOnUse"><stop offset="0.01"/><stop offset="0.12" stop-opacity="0.75"/><stop offset="1" stop-opacity="0"/></linearGradient><linearGradient id="linear-gradient-2" x1="175.03" y1="191.2" x2="274.1" y2="300.64" xlink:href="#linear-gradient"/><linearGradient id="linear-gradient-3" x1="167.44" y1="156.25" x2="228.49" y2="96.35" xlink:href="#linear-gradient"/><linearGradient id="linear-gradient-4" x1="176.61" y1="146.38" x2="225.19" y2="98.71" xlink:href="#linear-gradient"/><linearGradient id="linear-gradient-5" x1="187.77" y1="167.49" x2="210.04" y2="169.03" xlink:href="#linear-gradient"/><linearGradient id="linear-gradient-6" x1="236.82" y1="93.77" x2="277.25" y2="91.21" xlink:href="#linear-gradient"/><linearGradient id="linear-gradient-7" x1="266.63" y1="120.33" x2="265.1" y2="79.88" gradientUnits="userSpaceOnUse"><stop offset="0.02" stop-color="#fff" stop-opacity="0"/><stop offset="0.49" stop-color="#fff" stop-opacity="0.39"/><stop offset="1" stop-color="#fff"/></linearGradient><linearGradient id="linear-gradient-8" x1="277.9" y1="119.9" x2="276.37" y2="79.45" gradientUnits="userSpaceOnUse"><stop offset="0.02" stop-color="#fff" stop-opacity="0"/><stop offset="0.5" stop-color="#fff" stop-opacity="0.39"/><stop offset="1" stop-color="#fff"/></linearGradient><linearGradient id="linear-gradient-9" x1="147.89" y1="137.33" x2="194.22" y2="178.29" gradientUnits="userSpaceOnUse"><stop offset="0.02" stop-color="#fff" stop-opacity="0"/><stop offset="0.58" stop-color="#fff" stop-opacity="0.39"/><stop offset="1" stop-color="#fff"/></linearGradient><linearGradient id="linear-gradient-10" x1="253.58" y1="111.63" x2="252.63" y2="86.45" xlink:href="#linear-gradient-8"/><linearGradient id="linear-gradient-11" x1="204.66" y1="102.43" x2="203.12" y2="130.85" xlink:href="#linear-gradient"/></defs><title>Waitress</title><path d="M351.32,231.09a118,118,0,0,1-11.47,27c-12.21,21.31-30.39,39.51-49.58,55.21-11.53,9.43-23.73,18.31-37.53,23.91-11.06,4.48-22.89,6.75-34.73,8.25-29.61,3.75-60.51,2.73-88.15-8.53S78.2,303.09,70.32,274.3a107.88,107.88,0,0,1-3.13-17.95c-.55-5.43-.83-10.92-1.11-16.37C64.38,206.31,60,173.47,57,140.14c-1.33-14.7,2.71-29.31,7.76-43a167,167,0,0,1,11.59-24.9c2.47-4.33,14-16.36,14-20.69a132.87,132.87,0,0,1,31.33-29C146,6.76,175.68,1.05,204.59,1.75c15,.36,30.17,2.41,43.9,8.45,38.86,17.07,57.25,60.42,82.06,94.85,6.86,9.52,14.5,18.7,18.95,29.56,4.58,11.21,5.48,23.54,6.08,35.63C356.58,190.64,356.8,211.42,351.32,231.09Z" transform="translate(-56.76 -1.69)" fill="#a8890f" opacity="0.18" style="isolation:isolate"/><path d="M339.85,256.35v1.77c-12.21,21.31-30.39,39.51-49.58,55.21-11.53,9.43-23.73,18.31-37.53,23.91-11.06,4.48-22.89,6.75-34.73,8.25-29.61,3.75-60.51,2.73-88.15-8.53S78.2,303.09,70.32,274.3a107.88,107.88,0,0,1-3.13-17.95Z" transform="translate(-56.76 -1.69)" fill="#a8890f" opacity="0.41" style="isolation:isolate"/><path d="M203.11,267.77c-9.69-3.85-20.43-3.8-30.87-3.71l-83.2.76c-4.57,0-9.76.37-12.64,3.91-4,4.83-.94,12.06,2.64,17.17,15.86,22.57,28.29,26.71,55.77,29.18,5.48.49,28.56,9.23,30.27,4,1.11-3.39-3-6.24-1-9.18,1.59-2.32,4.78-2.82,7.59-2.78,16.18.24,47.25,24.6,57.28,2.85,4.05-8.79.17-14.12-7.31-18.46-4.45-2.59-11.83-4.52-14.12-9.7C205.1,276.38,210.44,270.68,203.11,267.77Z" transform="translate(-56.76 -1.69)" fill="url(#linear-gradient)"/><path d="M197.4,205.07c-2.77,10.65-6.7,21.73-11.74,30.85-.12,2-13.69,30.65-19.65,43-4,8.33-8.25,16.95-15.45,22.76l-7.05-3.35a3.62,3.62,0,0,1-1.76-1.32c-.54-.95-.14-2.12.27-3.13q8.17-20.38,16.37-40.78c2.24-5.59,11.85-46.75,15.19-59.43,2.48-9.39,3.75-24.89,16.48-24.14a15.58,15.58,0,0,1,5.64,1.33,12.19,12.19,0,0,0-.71,1c-2.78,4.84-2.86,10.77-2.1,16.3A74.33,74.33,0,0,0,197.4,205.07Z" transform="translate(-56.76 -1.69)" fill="#3f3d56"/><path d="M201.2,186.66a173,173,0,0,1-3.8,18.41,74.33,74.33,0,0,1-4.51-16.86c-.76-5.53-.68-11.46,2.1-16.3a12.19,12.19,0,0,1,.71-1,9.74,9.74,0,0,1,3.33,2.45C202.09,176.83,201.88,182.05,201.2,186.66Z" transform="translate(-56.76 -1.69)" fill="#3f3d56"/><path d="M232.87,301.26a3.85,3.85,0,0,1-2.23,1.45,21.83,21.83,0,0,1-8.37,1.07,3.75,3.75,0,0,1-2.26-.71,4.06,4.06,0,0,1-1-2.46q-1.77-11-3.56-22c-1.83-11.3-3.69-22.75-3-34.23a47.68,47.68,0,0,1,.41-4.94h0c-1-3.12-12-25.48-15.44-34.37a173,173,0,0,0,3.8-18.41c.68-4.61.89-9.83-2.17-13.35a9.74,9.74,0,0,0-3.33-2.45c2.59-3.37,8.79-7.87,12.58-5,3.44,2.6,5.22,13.61,6.5,17.67,4.39,14,8.66,27.66,12.44,41.79,1.39,5.21,5.62,53,6,73.69A4.25,4.25,0,0,1,232.87,301.26Z" transform="translate(-56.76 -1.69)" fill="#3f3d56"/><path d="M232.87,301.26a3.85,3.85,0,0,1-2.23,1.45,21.83,21.83,0,0,1-8.37,1.07,3.75,3.75,0,0,1-2.26-.71,4.06,4.06,0,0,1-1-2.46q-1.77-11-3.56-22c-1.83-11.3-3.69-22.75-3-34.23a47.68,47.68,0,0,1,.41-4.94h0c-1-3.12-12-25.48-15.44-34.37a173,173,0,0,0,3.8-18.41c.68-4.61.89-9.83-2.17-13.35a9.74,9.74,0,0,0-3.33-2.45c2.59-3.37,8.79-7.87,12.58-5,3.44,2.6,5.22,13.61,6.5,17.67,4.39,14,8.66,27.66,12.44,41.79,1.39,5.21,5.62,53,6,73.69A4.25,4.25,0,0,1,232.87,301.26Z" transform="translate(-56.76 -1.69)" fill="url(#linear-gradient-2)"/><path d="M201.2,186.66a173,173,0,0,1-3.8,18.41,74.33,74.33,0,0,1-4.51-16.86c-.76-5.53-.68-11.46,2.1-16.3a12.19,12.19,0,0,1,.71-1,9.74,9.74,0,0,1,3.33,2.45C202.09,176.83,201.88,182.05,201.2,186.66Z" transform="translate(-56.76 -1.69)" fill="#3f3d56"/><path d="M167.77,102.34a5.31,5.31,0,0,0-2.25,1.93,5.39,5.39,0,0,0-.09,3.53c3.73,19,3.34,38.88,9.19,57.38a38.67,38.67,0,0,0,2.64,6.55,5.73,5.73,0,0,0,1.46,1.91,6.08,6.08,0,0,0,3,1,61.58,61.58,0,0,0,19-.36c2.29-.4,4.71-1,6.31-2.7,2.4-2.53,2.16-6.48,2-10-.33-7.88.56-15.76,1.22-23.62.36-4.3.65-8.68-.28-12.89-1.35-6.15-5.23-11.77-5.12-18.06.05-2.84.76-6.17-1.3-8.13a7.37,7.37,0,0,0-3.23-1.52q-5.43-1.52-11-2.58C181.22,93.25,174.41,98.57,167.77,102.34Z" transform="translate(-56.76 -1.69)" fill="#a8890f"/><path d="M210.19,138c-.66,7.86-1.55,15.74-1.22,23.62a27.57,27.57,0,0,1-.16,6,7.54,7.54,0,0,1-1.86,3.93c-1.6,1.69-4,2.3-6.3,2.7a61.9,61.9,0,0,1-19,.36,6.21,6.21,0,0,1-3-1,5.77,5.77,0,0,1-1.46-1.92,37.5,37.5,0,0,1-2.63-6.55c-5.86-18.5-5.47-38.35-9.2-57.38a5.42,5.42,0,0,1,.09-3.54,4.91,4.91,0,0,1,2-1.78l.26-.14c1-.59,2.08-1.22,3.14-1.85a1.74,1.74,0,0,0,.2-.13c5.6-3.37,11.45-6.85,18.18-5.57q5.53,1.06,11,2.58a7.48,7.48,0,0,1,3.23,1.52c2.06,2,1.35,5.29,1.3,8.13-.11,6.29,3.77,11.91,5.12,18.06C210.84,129.3,210.55,133.67,210.19,138Z" transform="translate(-56.76 -1.69)" fill="url(#linear-gradient-3)"/><path d="M210.19,138c-.66,7.86-1.55,15.74-1.22,23.62a27.57,27.57,0,0,1-.16,6,61.64,61.64,0,0,1-11.63,1.51,6,6,0,0,1-3.09-.46,5.81,5.81,0,0,1-1.76-1.63,37.83,37.83,0,0,1-3.7-6c-8.88-17.24-5.41-31.34-14.08-48.68-2.62-5.25-7.54-8.46-7.17-9.6a1.05,1.05,0,0,1,.13-.26c.57-.74,2.44-1.44,3.4-2a1.74,1.74,0,0,0,.2-.13c5.6-3.37,11.45-6.85,18.18-5.57q5.53,1.06,11,2.58a7.48,7.48,0,0,1,3.23,1.52c2.06,2,1.35,5.29,1.3,8.13-.11,6.29,3.77,11.91,5.12,18.06C210.84,129.3,210.55,133.67,210.19,138Z" transform="translate(-56.76 -1.69)" fill="url(#linear-gradient-4)"/><path d="M197.31,174.06a24.52,24.52,0,0,0,.38,4,17.47,17.47,0,0,1,.69,3.78,1.31,1.31,0,0,1-.22.8,1.55,1.55,0,0,1-1.1.44l-6.75.77a.55.55,0,0,1-.34,0,.46.46,0,0,1-.17-.29c-1.11-3.47-1.06-7.19-1-10.83q.15-6.94.41-13.88a5.41,5.41,0,0,1,3.19-5.85,5.73,5.73,0,0,1,3.34-1.14c1.81.18,2.11,1.79,1.75,3.18a27.25,27.25,0,0,0-.34,6.13Q197.07,167.61,197.31,174.06Z" transform="translate(-56.76 -1.69)" fill="#a8890f"/><path d="M197.31,174.06a24.52,24.52,0,0,0,.38,4,17.47,17.47,0,0,1,.69,3.78,1.31,1.31,0,0,1-.22.8,1.55,1.55,0,0,1-1.1.44l-6.75.77a.55.55,0,0,1-.34,0,.46.46,0,0,1-.17-.29c-1.11-3.47-1.06-7.19-1-10.83q.15-6.94.41-13.88a5.41,5.41,0,0,1,3.19-5.85,5.73,5.73,0,0,1,3.34-1.14c1.81.18,2.11,1.79,1.75,3.18a27.25,27.25,0,0,0-.34,6.13Q197.07,167.61,197.31,174.06Z" transform="translate(-56.76 -1.69)" fill="url(#linear-gradient-5)"/><path d="M174.15,100.65a1.4,1.4,0,0,0,.08,1,15.65,15.65,0,0,0,2.35,4.44c1.65,2.19,3.83,3.91,5.58,6,1.6,1.94,2.81,4.17,4.32,6.18,1.24,1.65,2.67,3.14,3.86,4.83.82,1.17,1.51,2.43,2.43,3.53a6.29,6.29,0,0,0,3.51,2.31c1.48-2,1.83-4.58,2.05-7.05a103.9,103.9,0,0,0-.58-23.25c-.1-.77,0-1.46-.59-2a2.67,2.67,0,0,0-1-.49c-4.33-1.28-8.9-2.56-13.3-1.53a25,25,0,0,0-6.94,3.17,6,6,0,0,0-1.66,1.27C173.76,99.61,173.94,100,174.15,100.65Z" transform="translate(-56.76 -1.69)" fill="#fff"/><path d="M157.16,115.05a47.34,47.34,0,0,0-1,8.74L155,149.45c-.16,3.38-.17,7.16,2.16,9.6,2.52,2.66,6.71,2.62,10.34,2.2,10.28-1.18,20.32-3.83,30.32-6.47a1.92,1.92,0,0,0,.93-.44,1.88,1.88,0,0,0,.35-1.38l-.06-9.55c0-.57-.05-1.25-.54-1.56a1.79,1.79,0,0,0-.89-.19q-13.26-.49-26.54-.22a1.51,1.51,0,0,1-.92-.17c-.53-.34-.46-1.12-.34-1.74a55.66,55.66,0,0,0-.49-24.57c-.6-2.29-2.4-9.56-5.72-9.14C160.1,106.26,157.84,112.22,157.16,115.05Z" transform="translate(-56.76 -1.69)" fill="#fff"/><path d="M203.74,99.82a22.6,22.6,0,0,1,6.08,5.41c1.26,1.62,2.29,3.39,3.48,5.06,1.78,2.51,3.91,4.76,5.7,7.26,2.62,3.66,4.51,7.86,7.51,11.22a1.12,1.12,0,0,0,1.56.37c5.92-2.33,13.83-7.64,16.57-8.37,0-.25,1.86,7.35,2.47,10.55a99.56,99.56,0,0,1-13.67,10.52,20.29,20.29,0,0,1-5.76,2.82,7.94,7.94,0,0,1-6.23-.72,12,12,0,0,1-2.81-2.84l-4.3-5.46a29.79,29.79,0,0,1-3-4.26,30.51,30.51,0,0,1-2.41-6.94l-2.49-9.65a73.51,73.51,0,0,1-2.54-13C203.89,101.35,204.15,100,203.74,99.82Z" transform="translate(-56.76 -1.69)" fill="#fff"/><path d="M208.23,138.48c2.38-.26,4.58,1.23,6.37,2.82a10.16,10.16,0,0,1,2.21,2.55,7.56,7.56,0,0,1,.8,3.89,7.65,7.65,0,0,1-1.89,5,4.94,4.94,0,0,1-4.93,1.45c-1.63-.53-2.79-2-4.41-2.61-1.94-.69-4.06.08-6.12.24a1.19,1.19,0,0,1-.75-.13,1.23,1.23,0,0,1-.4-.63,16.63,16.63,0,0,1-1-5.8c0-1.61.43-2,1.85-2.51C202.83,141.65,205.15,138.83,208.23,138.48Z" transform="translate(-56.76 -1.69)" fill="#ffdad2"/><path d="M248.68,128.86c.74-.13,1.5-.22,2.24-.38a21.86,21.86,0,0,0,5.9-2.7q4.55-2.62,9.26-5c.4-.2.87-.58.69-1a.73.73,0,0,0-.47-.35,5.81,5.81,0,0,0-1.76-.25c-4.29-.17-8.59-.35-12.88-.2a9,9,0,0,0-2.14.26,19,19,0,0,0-3.59,2,10.75,10.75,0,0,0-2.49,1.49,4.42,4.42,0,0,0-1.17,3c0,1.09,0,4.14,1.36,4.47.67.17,1.5-.33,2.1-.55A19.82,19.82,0,0,1,248.68,128.86Z" transform="translate(-56.76 -1.69)" fill="#ffdad2"/><path d="M244.88,96.56a18.28,18.28,0,0,1,.72-6.6c.58-1.54,1.57-2.9,2.25-4.41,1.82-4.06,1.2-8.73,1.1-13.18a2.75,2.75,0,0,1,.1-1c.41-1.15,2-1.25,3.18-1.13a1,1,0,0,1,.71.25,1,1,0,0,1,.18.63c.14,2.58.16,5.17.07,7.75a14.72,14.72,0,0,0,.19,3.87,21.1,21.1,0,0,0,2.1,4.43c3,5.84,2.66,12.77,2.22,19.33l-.48,7.15a1.29,1.29,0,0,1-1.56,1.48,49.84,49.84,0,0,1-8-.22c-2.16-.25-2.49-.77-2.56-2.86C244.92,106.93,245,101.73,244.88,96.56Z" transform="translate(-56.76 -1.69)" fill="#a8890f"/><path d="M244.88,96.56a18.28,18.28,0,0,1,.72-6.6c.58-1.54,1.57-2.9,2.25-4.41,1.82-4.06,1.2-8.73,1.1-13.18a2.75,2.75,0,0,1,.1-1c.41-1.15,2-1.25,3.18-1.13a1,1,0,0,1,.71.25,1,1,0,0,1,.18.63c.14,2.58.16,5.17.07,7.75a14.72,14.72,0,0,0,.19,3.87,21.1,21.1,0,0,0,2.1,4.43c3,5.84,2.66,12.77,2.22,19.33l-.48,7.15a1.29,1.29,0,0,1-1.56,1.48,49.84,49.84,0,0,1-8-.22c-2.16-.25-2.49-.77-2.56-2.86C244.92,106.93,245,101.73,244.88,96.56Z" transform="translate(-56.76 -1.69)" fill="#a8890f"/><path d="M257.7,106.55c0,.58-.07,1.17-.12,1.76l-.36,5.39a1.71,1.71,0,0,1-.32,1.09,1.78,1.78,0,0,1-1.24.39,49.84,49.84,0,0,1-8-.22c-2.16-.25-2.49-.77-2.56-2.86-.18-5.18-.13-10.37-.21-15.54a18.3,18.3,0,0,1,.72-6.6c.58-1.54,1.57-2.9,2.25-4.41,1.82-4,1.2-8.73,1.1-13.18a2.53,2.53,0,0,1,.1-1c.41-1.15,2-1.25,3.18-1.13a.76.76,0,0,1,.89.88c.14,2.59.16,5.17.07,7.76a14.59,14.59,0,0,0,.19,3.85,20.94,20.94,0,0,0,2.1,4.44,19.67,19.67,0,0,1,1.7,4.67C258.31,96.58,258,101.67,257.7,106.55Z" transform="translate(-56.76 -1.69)" fill="url(#linear-gradient-6)"/><path d="M260.52,94.47a8.94,8.94,0,0,0,.22,3.46c.56,1.76,2.07,3,3.51,4.18a2.51,2.51,0,0,1,.66.68,2.36,2.36,0,0,1,.2.79,45.33,45.33,0,0,1,.39,7.9,2.34,2.34,0,0,1-.65,1.86,2.43,2.43,0,0,1-1.3.34l-1.8.11a.89.89,0,0,0-.5.15c-.26.22-.13.67.15.86a1.6,1.6,0,0,0,1,.16l6.94-.28c.7,0,1.62-.25,1.65-1l-2.88-.41a1,1,0,0,1-.62-.23,1,1,0,0,1-.22-.58,29.77,29.77,0,0,1,.12-8.74,1.61,1.61,0,0,1,.23-.69,2,2,0,0,1,.53-.43A7.11,7.11,0,0,0,271,96.74,19,19,0,0,0,269.65,90a2.62,2.62,0,0,0-2.55-2c-.71,0-1.43.09-2.14.13a18.08,18.08,0,0,0-2.85,0C260.46,88.48,260.64,92.94,260.52,94.47Z" transform="translate(-56.76 -1.69)" fill="#a8890f"/><path d="M271.81,94.47a8.94,8.94,0,0,0,.21,3.46c.57,1.76,2.08,3,3.52,4.18a2.47,2.47,0,0,1,.65.68,2.37,2.37,0,0,1,.21.79,45.33,45.33,0,0,1,.39,7.9,2.34,2.34,0,0,1-.66,1.86,2.41,2.41,0,0,1-1.3.34l-1.79.11a.84.84,0,0,0-.5.15c-.26.22-.13.67.15.86a1.59,1.59,0,0,0,1,.16l6.93-.28c.7,0,1.62-.25,1.66-1l-2.88-.41a1.05,1.05,0,0,1-.63-.23,1.11,1.11,0,0,1-.21-.58,29.1,29.1,0,0,1,.12-8.74,1.49,1.49,0,0,1,.23-.69,1.86,1.86,0,0,1,.53-.43,7.13,7.13,0,0,0,2.87-5.91A19,19,0,0,0,280.93,90a2.61,2.61,0,0,0-2.55-2c-.71,0-1.43.09-2.13.13a18.08,18.08,0,0,0-2.85,0C271.75,88.48,271.93,92.94,271.81,94.47Z" transform="translate(-56.76 -1.69)" fill="#a8890f"/><path d="M260.52,94.47a8.94,8.94,0,0,0,.22,3.46c.56,1.76,2.07,3,3.51,4.18a2.51,2.51,0,0,1,.66.68,2.36,2.36,0,0,1,.2.79,45.33,45.33,0,0,1,.39,7.9,2.34,2.34,0,0,1-.65,1.86,2.43,2.43,0,0,1-1.3.34l-1.8.11a.89.89,0,0,0-.5.15c-.26.22-.13.67.15.86a1.6,1.6,0,0,0,1,.16l6.94-.28c.7,0,1.62-.25,1.65-1l-2.88-.41a1,1,0,0,1-.62-.23,1,1,0,0,1-.22-.58,29.77,29.77,0,0,1,.12-8.74,1.61,1.61,0,0,1,.23-.69,2,2,0,0,1,.53-.43A7.11,7.11,0,0,0,271,96.74,19,19,0,0,0,269.65,90a2.62,2.62,0,0,0-2.55-2c-.71,0-1.43.09-2.14.13a18.08,18.08,0,0,0-2.85,0C260.46,88.48,260.64,92.94,260.52,94.47Z" transform="translate(-56.76 -1.69)" fill="url(#linear-gradient-7)"/><path d="M271.81,94.47a8.94,8.94,0,0,0,.21,3.46c.57,1.76,2.08,3,3.52,4.18a2.47,2.47,0,0,1,.65.68,2.37,2.37,0,0,1,.21.79,45.33,45.33,0,0,1,.39,7.9,2.34,2.34,0,0,1-.66,1.86,2.41,2.41,0,0,1-1.3.34l-1.79.11a.84.84,0,0,0-.5.15c-.26.22-.13.67.15.86a1.59,1.59,0,0,0,1,.16l6.93-.28c.7,0,1.62-.25,1.66-1l-2.88-.41a1.05,1.05,0,0,1-.63-.23,1.11,1.11,0,0,1-.21-.58,29.1,29.1,0,0,1,.12-8.74,1.49,1.49,0,0,1,.23-.69,1.86,1.86,0,0,1,.53-.43,7.13,7.13,0,0,0,2.87-5.91A19,19,0,0,0,280.93,90a2.61,2.61,0,0,0-2.55-2c-.71,0-1.43.09-2.13.13a18.08,18.08,0,0,0-2.85,0C271.75,88.48,271.93,92.94,271.81,94.47Z" transform="translate(-56.76 -1.69)" fill="url(#linear-gradient-8)"/><path d="M134.4,306.26a6.37,6.37,0,0,0-.85,3.18,3.4,3.4,0,0,0,5.69,2.25c.32-.3.65-.68,1.09-.65s.63.36.84.66c1.68,2.42,3,5.36,5.65,6.64a12.27,12.27,0,0,0,4.51.87l12.59.8a.9.9,0,0,0,1.16-.93c.54-3.8-.54-8.21-3.86-10.14-2.65-1.54-6-1.12-9-.65-3.42-4.81-.83-11-8.41-11.17C139.89,297,134.4,302.08,134.4,306.26Z" transform="translate(-56.76 -1.69)" fill="#3f3d56"/><path d="M222.87,318.7l3.89-.79a1.57,1.57,0,0,0,.91-.39,2.28,2.28,0,0,0,.37-1.17,3.1,3.1,0,0,1,3.42-2.38c1.51.26,2.65,1.62,4.16,1.85a5.86,5.86,0,0,0,2.51-.37q8-2.43,15.89-5.46c.66-2.29-.87-4.79-3-5.91a12.19,12.19,0,0,0-7-.9,11.86,11.86,0,0,0-3.19.68c-1.29.53-2.4,1.43-3.69,2s-2.95.6-3.92-.4c-1.35-1.39-1-4.36-2.93-4.75a3.86,3.86,0,0,0-1.7.24c-3.81,1.07-5.26-.15-6.25,4S222.39,314.58,222.87,318.7Z" transform="translate(-56.76 -1.69)" fill="#3f3d56"/><path d="M163.66,161.74c.34,8,1.65,16,1.3,24a18,18,0,0,0,.15,4.92,5.15,5.15,0,0,0,2.88,3.77,7.32,7.32,0,0,0,2.64.33,84.88,84.88,0,0,0,18.72-2.25,4.34,4.34,0,0,0,2.58-1.31,4.53,4.53,0,0,0,.62-2.63,453.77,453.77,0,0,1,3.54-47,2.43,2.43,0,0,0,0-1c-.34-1-1.66-1-2.68-.91a68.4,68.4,0,0,1-11.36.25c-3-.18-6.45-1.37-9.42-1.14-5.21.4-7.72,9-8.44,13.11A46.6,46.6,0,0,0,163.66,161.74Z" transform="translate(-56.76 -1.69)" fill="#a8890f"/><path d="M163.66,161.74c.34,8,1.65,16,1.3,24a18,18,0,0,0,.15,4.92,5.15,5.15,0,0,0,2.88,3.77,7.32,7.32,0,0,0,2.64.33,84.88,84.88,0,0,0,18.72-2.25,4.34,4.34,0,0,0,2.58-1.31,4.53,4.53,0,0,0,.62-2.63,453.77,453.77,0,0,1,3.54-47,2.43,2.43,0,0,0,0-1c-.34-1-1.66-1-2.68-.91a68.4,68.4,0,0,1-11.36.25c-3-.18-6.45-1.37-9.42-1.14-5.21.4-7.72,9-8.44,13.11A46.6,46.6,0,0,0,163.66,161.74Z" transform="translate(-56.76 -1.69)" fill="url(#linear-gradient-9)"/><path d="M196.15,75.57c.6,3.61,1.14,7.56-.71,10.72-2,3.45-6.54,4.92-10.42,4a14.64,14.64,0,0,1-9-7.39,19.93,19.93,0,0,1-2.23-12.6,13,13,0,0,1,4.54-8.47,16.65,16.65,0,0,1,5.57-2.48,9.66,9.66,0,0,1,4-.52C195.46,59.85,195.24,70.07,196.15,75.57Z" transform="translate(-56.76 -1.69)" fill="#ffdad2"/><path d="M189,64.06a18,18,0,0,1-5.4,3c-1.92.65-4.19,1.17-5.06,3a5.49,5.49,0,0,0-.42,2.12,17.88,17.88,0,0,0,.46,4.78,6,6,0,0,0-1.85-1.54,2.06,2.06,0,0,0-2.26.25,2,2,0,0,0-.53,1.43c0,2.33,2.48,3.83,4.73,4.44l1.19,3.94a6.46,6.46,0,0,1-5.09-1.11,14.75,14.75,0,0,1-3.64-3.91,44,44,0,0,1-2.65-4.36A7.64,7.64,0,0,1,167.31,72a2.93,2.93,0,0,1,2.75-2.81A9.92,9.92,0,0,1,173.38,58c2.22-1.63,5-2.24,7.73-2.68,2.4-.39,7.26-2,9.49-.33C194.06,57.52,191.52,62,189,64.06Z" transform="translate(-56.76 -1.69)" fill="#3f3d56"/><path d="M190.53,93.1c.81,1.92,2.07,3.87,1.64,5.9a4.76,4.76,0,0,1-4.16,3.45,8.65,8.65,0,0,1-5.46-1.49,6.3,6.3,0,0,1-2-1.75,7.51,7.51,0,0,1-.87-2.06,69.22,69.22,0,0,1-2.13-9.22,4.12,4.12,0,0,1,0-1.64,2.88,2.88,0,0,1,1.18-1.55,6.19,6.19,0,0,1,5.53-.52c1.55.52,3.95,1.64,4.8,3.14S189.77,91.33,190.53,93.1Z" transform="translate(-56.76 -1.69)" fill="#ffdad2"/><path d="M183.1,100.66a.91.91,0,0,0-.74.1.9.9,0,0,0-.24.45c-.68,2.59.72,5.29,2.5,7.3a.63.63,0,0,0,.29.22.57.57,0,0,0,.45-.1c1.68-.86,2.73-2.56,3.7-4.18a1.43,1.43,0,0,0,1.37.83,1,1,0,0,0,.85-1.22,6.21,6.21,0,0,0,4.16,2.07.81.81,0,0,0,.41,0,.72.72,0,0,0,.36-.51c.51-1.75-.64-3.51-1-5.3-.18-.89-.32-2-1.19-2.27a1.45,1.45,0,0,0-1.46.58,6.36,6.36,0,0,0-.77,1.46,6,6,0,0,1-1.12,1.72,6.48,6.48,0,0,0-3.14-.38A36,36,0,0,1,183.1,100.66Z" transform="translate(-56.76 -1.69)"/><path d="M257.7,106.55c0,.58-.07,1.17-.12,1.76h-9V91.89h8.62C258.31,96.58,258,101.67,257.7,106.55Z" transform="translate(-56.76 -1.69)" fill="url(#linear-gradient-10)"/><polygon points="226.85 117.58 181.82 117.93 175.52 113.16 232.65 112.81 226.85 117.58" fill="#a8890f"/><polygon points="226.85 117.58 181.82 117.93 175.52 113.16 232.65 112.81 226.85 117.58" fill="url(#linear-gradient-11)"/></svg>